# xmcd
# 
# Track frame offsets:
#     150
#     22692
#     37428
#     56250
# 
# Disc length: 1040
# 
# Revision: 0
# Processed by: cddbd v1.5.2PL0 Copyright (c) Steve Scherf et al.
# Submitted via: fre:ac v1.0.17
# 
DISCID=29040e04
DTITLE=Various Artist - 346Pro IDOL selection vol.3
DYEAR=0
DGENRE=
TTITLE0=佐久間まゆ・小早川紗枝 - あいくるしい
TTITLE1=赤城みりあ - ショコラ・ティアラ ～For Miria rearrange MIX～
TTITLE2=神崎蘭子 - ヴィーナスシンドローム ～For Ranko rearrange MIX～
TTITLE3=緒方智絵里 - ＤＯＫＩＤＯＫＩリズム ～For Chieri rearrange MIX～
EXTD=
EXTT0=
EXTT1=
EXTT2=
EXTT3=
PLAYORDER=
